# xmcd
#
# Track frame offsets:
#	150
#	53747
#	95605
#	118753
#	162120
#
# Disc length: 2466 seconds
#
# Revision: 1
# Processed by: cddbd v1.5.2PL0 Copyright (c) Steve Scherf et al.
# Submitted via: EasyCDDAExtractor 9.0.0.1
#
DISCID=3909a005
DTITLE=James Gang - Casino Potawatomi 13-08-06 Disc 2
DYEAR=2006
DGENRE=Hard Rock
TTITLE0=Stop - You're Gonna Need Me
TTITLE1=Lost Woman
TTITLE2=Funk #49
TTITLE3=Woman #
TTITLE4=Rocky Mountain Way
EXTD=
EXTT0=
EXTT1=
EXTT2=
EXTT3=
EXTT4=
PLAYORDER=
